ffmpeg started on 2025-05-12 at 13:22:50
Report written to "D:\Convert\FFMetrics\reports\psnr_report-6.txt"
Log level: 32
Command line:
ffmpeg -hide_banner -nostdin -i "G:\\\xc0\xed\xe8\xec\xe5\\\xce\xed\xe3\xee\xe8\xed\xe3\xe8\\!_35_\xcb\xe5\xf2\xee_2024\\DreamCast\\\xc0\xeb\xff \xe8\xed\xee\xe3\xe4\xe0 \xea\xee\xea\xe5\xf2\xed\xe8\xf7\xe0\xe5\xf2 \xf1\xee \xec\xed\xee\xe9 \xef\xee-\xf0\xf3\xf1\xf1\xea\xe8\\[DC] Roshidere - 11_Telegram_HEVC.mkv" -i "G:\\\xc0\xed\xe8\xec\xe5\\\xce\xed\xe3\xee\xe8\xed\xe3\xe8\\!_35_\xcb\xe5\xf2\xee_2024\\DreamCast\\\xc0\xeb\xff \xe8\xed\xee\xe3\xe4\xe0 \xea\xee\xea\xe5\xf2\xed\xe8\xf7\xe0\xe5\xf2 \xf1\xee \xec\xed\xee\xe9 \xef\xee-\xf0\xf3\xf1\xf1\xea\xe8\\[DC] Roshidere - 11_Telegram.mp4" -lavfi "[0:v]settb=AVTB,setpts=PTS-STARTPTS,format=pix_fmts=yuv420p10,fps=24000/1001,scale=1920:1080:flags=bicubic[main];[1:v]settb=AVTB,setpts=PTS-STARTPTS,format=pix_fmts=yuv420p,fps=24000/1001,scale=1920:1080:flags=bicubic[ref];[main][ref]psnr=eof_action=endall:stats_file='D\\:/Convert/FFMetrics/logs/psnr_logfile-6.txt'" -f null -
Input #0, matroska,webm, from 'G:\Аниме\Онгоинги\!_35_Лето_2024\DreamCast\Аля иногда кокетничает со мной по-русски\[DC] Roshidere - 11_Telegram_HEVC.mkv':
  Metadata:
    COMPATIBLE_BRANDS: isomiso2avc1mp41
    MAJOR_BRAND     : isom
    MINOR_VERSION   : 512
    ENCODER         : Lavf61.7.100
  Duration: 00:24:47.02, start: -0.021000, bitrate: 967 kb/s
  Stream #0:0: Video: hevc (Main 10), yuv420p10le(tv, bt709, progressive), 1920x1080 [SAR 1:1 DAR 16:9], 23.98 fps, 23.98 tbr, 1k tbn (default)
      Metadata:
        HANDLER_NAME    : VideoHandler
        VENDOR_ID       : [0][0][0][0]
        ENCODER         : Lavc61.19.100 libx265
        BPS             : 770892
        DURATION        : 00:24:46.568708333
        NUMBER_OF_FRAMES: 35642
        NUMBER_OF_BYTES : 143247933
        _STATISTICS_WRITING_APP: mkvpropedit v66.0.0 ('Josie') 64-bit
        _STATISTICS_WRITING_DATE_UTC: 2025-05-06 13:09:15
        _STATISTICS_TAGS: BPS DURATION NUMBER_OF_FRAMES NUMBER_OF_BYTES
  Stream #0:1: Audio: aac (LC), 48000 Hz, stereo, fltp (default)
      Metadata:
        HANDLER_NAME    : SoundHandler
        VENDOR_ID       : [0][0][0][0]
        ENCODER         : Lavc61.19.100 aac
        BPS             : 192907
        DURATION        : 00:24:47.018000000
        NUMBER_OF_FRAMES: 69705
        NUMBER_OF_BYTES : 35857160
        _STATISTICS_WRITING_APP: mkvpropedit v66.0.0 ('Josie') 64-bit
        _STATISTICS_WRITING_DATE_UTC: 2025-05-06 13:09:15
        _STATISTICS_TAGS: BPS DURATION NUMBER_OF_FRAMES NUMBER_OF_BYTES
Input #1, mov,mp4,m4a,3gp,3g2,mj2, from 'G:\Аниме\Онгоинги\!_35_Лето_2024\DreamCast\Аля иногда кокетничает со мной по-русски\[DC] Roshidere - 11_Telegram.mp4':
  Metadata:
    major_brand     : isom
    minor_version   : 512
    compatible_brands: isomiso2avc1mp41
    encoder         : Lavf61.1.100
  Duration: 00:24:46.99, start: 0.000000, bitrate: 3749 kb/s
  Stream #1:0[0x1](und): Video: h264 (High) (avc1 / 0x31637661), yuv420p(tv, bt709, progressive), 1920x1080 [SAR 1:1 DAR 16:9], 3602 kb/s, 23.98 fps, 23.98 tbr, 24k tbn (default)
      Metadata:
        handler_name    : VideoHandler
        vendor_id       : [0][0][0][0]
        encoder         : Lavc61.3.100 h264_qsv
  Stream #1:1[0x2](und): Audio: aac (HE-AACv2) (mp4a / 0x6134706D), 48000 Hz, stereo, fltp, 144 kb/s (default)
      Metadata:
        handler_name    : SoundHandler
        vendor_id       : [0][0][0][0]
Stream mapping:
  Stream #0:0 (hevc) -> settb:default
  Stream #1:0 (h264) -> settb:default
  psnr:default -> Stream #0:0 (wrapped_avframe)
  Stream #0:1 -> #0:1 (aac (native) -> pcm_s16le (native))
Output #0, null, to 'pipe:':
  Metadata:
    COMPATIBLE_BRANDS: isomiso2avc1mp41
    MAJOR_BRAND     : isom
    MINOR_VERSION   : 512
    encoder         : Lavf61.7.100
  Stream #0:0: Video: wrapped_avframe, yuv420p10le(tv, bt709, progressive), 1920x1080 [SAR 1:1 DAR 16:9], q=2-31, 200 kb/s, 23.98 fps, 23.98 tbn
      Metadata:
        encoder         : Lavc61.19.100 wrapped_avframe
  Stream #0:1: Audio: pcm_s16le, 48000 Hz, stereo, s16, 1536 kb/s (default)
      Metadata:
        HANDLER_NAME    : SoundHandler
        VENDOR_ID       : [0][0][0][0]
        _STATISTICS_TAGS: BPS DURATION NUMBER_OF_FRAMES NUMBER_OF_BYTES
        BPS             : 192907
        DURATION        : 00:24:47.018000000
        NUMBER_OF_FRAMES: 69705
        NUMBER_OF_BYTES : 35857160
        _STATISTICS_WRITING_APP: mkvpropedit v66.0.0 ('Josie') 64-bit
        _STATISTICS_WRITING_DATE_UTC: 2025-05-06 13:09:15
        encoder         : Lavc61.19.100 pcm_s16le
frame=  178 fps=0.0 q=-0.0 size=N/A time=00:00:07.42 bitrate=N/A speed=14.4x    frame=  448 fps=431 q=-0.0 size=N/A time=00:00:18.68 bitrate=N/A speed=  18x    frame=  712 fps=460 q=-0.0 size=N/A time=00:00:29.69 bitrate=N/A speed=19.2x    frame=  973 fps=470 q=-0.0 size=N/A time=00:00:40.58 bitrate=N/A speed=19.6x    frame= 1223 fps=474 q=-0.0 size=N/A time=00:00:51.00 bitrate=N/A speed=19.8x    frame= 1482 fps=478 q=-0.0 size=N/A time=00:01:01.81 bitrate=N/A speed=19.9x    frame= 1755 fps=486 q=-0.0 size=N/A time=00:01:13.19 bitrate=N/A speed=20.3x    frame= 1965 fps=476 q=-0.0 size=N/A time=00:01:21.95 bitrate=N/A speed=19.8x    frame= 2148 fps=462 q=-0.0 size=N/A time=00:01:29.58 bitrate=N/A speed=19.3x    frame= 2369 fps=459 q=-0.0 size=N/A time=00:01:38.80 bitrate=N/A speed=19.1x    frame= 2569 fps=453 q=-0.0 size=N/A time=00:01:47.14 bitrate=N/A speed=18.9x    frame= 2772 fps=447 q=-0.0 size=N/A time=00:01:55.61 bitrate=N/A speed=18.7x    frame= 3003 fps=448 q=-0.0 size=N/A time=00:02:05.25 bitrate=N/A speed=18.7x    frame= 3170 fps=439 q=-0.0 size=N/A time=00:02:12.21 bitrate=N/A speed=18.3x    frame= 3333 fps=431 q=-0.0 size=N/A time=00:02:19.01 bitrate=N/A speed=  18x    frame= 3521 fps=426 q=-0.0 size=N/A time=00:02:26.85 bitrate=N/A speed=17.8x    frame= 3723 fps=425 q=-0.0 size=N/A time=00:02:35.28 bitrate=N/A speed=17.7x    frame= 3969 fps=427 q=-0.0 size=N/A time=00:02:45.54 bitrate=N/A speed=17.8x    frame= 4201 fps=429 q=-0.0 size=N/A time=00:02:55.21 bitrate=N/A speed=17.9x    frame= 4455 fps=432 q=-0.0 size=N/A time=00:03:05.81 bitrate=N/A speed=  18x    frame= 4720 fps=436 q=-0.0 size=N/A time=00:03:16.86 bitrate=N/A speed=18.2x    frame= 4993 fps=440 q=-0.0 size=N/A time=00:03:28.24 bitrate=N/A speed=18.3x    frame= 5251 fps=443 q=-0.0 size=N/A time=00:03:39.01 bitrate=N/A speed=18.5x    frame= 5532 fps=447 q=-0.0 size=N/A time=00:03:50.73 bitrate=N/A speed=18.6x    frame= 5800 fps=450 q=-0.0 size=N/A time=00:04:01.90 bitrate=N/A speed=18.8x    frame= 6081 fps=453 q=-0.0 size=N/A time=00:04:13.62 bitrate=N/A speed=18.9x    frame= 6349 fps=456 q=-0.0 size=N/A time=00:04:24.80 bitrate=N/A speed=  19x    frame= 6624 fps=459 q=-0.0 size=N/A time=00:04:36.27 bitrate=N/A speed=19.1x    frame= 6898 fps=461 q=-0.0 size=N/A time=00:04:47.70 bitrate=N/A speed=19.2x    frame= 7175 fps=464 q=-0.0 size=N/A time=00:04:59.25 bitrate=N/A speed=19.3x    frame= 7423 fps=464 q=-0.0 size=N/A time=00:05:09.60 bitrate=N/A speed=19.4x    frame= 7693 fps=466 q=-0.0 size=N/A time=00:05:20.86 bitrate=N/A speed=19.4x    frame= 7955 fps=468 q=-0.0 size=N/A time=00:05:31.83 bitrate=N/A speed=19.5x    frame= 8230 fps=469 q=-0.0 size=N/A time=00:05:43.25 bitrate=N/A speed=19.6x    frame= 8474 fps=470 q=-0.0 size=N/A time=00:05:53.43 bitrate=N/A speed=19.6x    frame= 8746 fps=471 q=-0.0 size=N/A time=00:06:04.78 bitrate=N/A speed=19.6x    frame= 9008 fps=472 q=-0.0 size=N/A time=00:06:15.70 bitrate=N/A speed=19.7x    frame= 9273 fps=473 q=-0.0 size=N/A time=00:06:26.76 bitrate=N/A speed=19.7x    frame= 9551 fps=475 q=-0.0 size=N/A time=00:06:38.35 bitrate=N/A speed=19.8x    frame= 9822 fps=476 q=-0.0 size=N/A time=00:06:49.65 bitrate=N/A speed=19.9x    frame=10091 fps=477 q=-0.0 size=N/A time=00:07:00.87 bitrate=N/A speed=19.9x    frame=10368 fps=479 q=-0.0 size=N/A time=00:07:12.43 bitrate=N/A speed=  20x    frame=10631 fps=480 q=-0.0 size=N/A time=00:07:23.44 bitrate=N/A speed=  20x    frame=10900 fps=480 q=-0.0 size=N/A time=00:07:34.62 bitrate=N/A speed=  20x    frame=11159 fps=481 q=-0.0 size=N/A time=00:07:45.42 bitrate=N/A speed=20.1x    frame=11425 fps=482 q=-0.0 size=N/A time=00:07:56.51 bitrate=N/A speed=20.1x    frame=11696 fps=483 q=-0.0 size=N/A time=00:08:07.82 bitrate=N/A speed=20.1x    frame=11970 fps=483 q=-0.0 size=N/A time=00:08:19.24 bitrate=N/A speed=20.2x    frame=12196 fps=483 q=-0.0 size=N/A time=00:08:28.67 bitrate=N/A speed=20.1x    frame=12469 fps=484 q=-0.0 size=N/A time=00:08:40.06 bitrate=N/A speed=20.2x    frame=12724 fps=484 q=-0.0 size=N/A time=00:08:50.73 bitrate=N/A speed=20.2x    frame=12959 fps=483 q=-0.0 size=N/A time=00:09:00.49 bitrate=N/A speed=20.2x    frame=13237 fps=484 q=-0.0 size=N/A time=00:09:12.09 bitrate=N/A speed=20.2x    frame=13518 fps=485 q=-0.0 size=N/A time=00:09:23.81 bitrate=N/A speed=20.2x    frame=13773 fps=486 q=-0.0 size=N/A time=00:09:34.44 bitrate=N/A speed=20.3x    frame=14050 fps=486 q=-0.0 size=N/A time=00:09:46.00 bitrate=N/A speed=20.3x    frame=14321 fps=487 q=-0.0 size=N/A time=00:09:57.30 bitrate=N/A speed=20.3x    frame=14602 fps=488 q=-0.0 size=N/A time=00:10:09.02 bitrate=N/A speed=20.4x    frame=14884 fps=489 q=-0.0 size=N/A time=00:10:20.78 bitrate=N/A speed=20.4x    frame=15161 fps=490 q=-0.0 size=N/A time=00:10:32.34 bitrate=N/A speed=20.4x    frame=15405 fps=489 q=-0.0 size=N/A time=00:10:42.51 bitrate=N/A speed=20.4x    frame=15645 fps=489 q=-0.0 size=N/A time=00:10:52.52 bitrate=N/A speed=20.4x    frame=15905 fps=489 q=-0.0 size=N/A time=00:11:03.37 bitrate=N/A speed=20.4x    frame=16160 fps=489 q=-0.0 size=N/A time=00:11:14.00 bitrate=N/A speed=20.4x    frame=16403 fps=489 q=-0.0 size=N/A time=00:11:24.14 bitrate=N/A speed=20.4x    frame=16626 fps=488 q=-0.0 size=N/A time=00:11:33.44 bitrate=N/A speed=20.4x    frame=16889 fps=489 q=-0.0 size=N/A time=00:11:44.41 bitrate=N/A speed=20.4x    frame=17159 fps=489 q=-0.0 size=N/A time=00:11:55.67 bitrate=N/A speed=20.4x    frame=17417 fps=489 q=-0.0 size=N/A time=00:12:06.43 bitrate=N/A speed=20.4x    frame=17670 fps=489 q=-0.0 size=N/A time=00:12:16.98 bitrate=N/A speed=20.4x    frame=17943 fps=490 q=-0.0 size=N/A time=00:12:28.37 bitrate=N/A speed=20.4x    frame=18175 fps=489 q=-0.0 size=N/A time=00:12:38.04 bitrate=N/A speed=20.4x    frame=18410 fps=489 q=-0.0 size=N/A time=00:12:47.85 bitrate=N/A speed=20.4x    frame=18674 fps=489 q=-0.0 size=N/A time=00:12:58.86 bitrate=N/A speed=20.4x    frame=18956 fps=490 q=-0.0 size=N/A time=00:13:10.62 bitrate=N/A speed=20.4x    frame=19236 fps=491 q=-0.0 size=N/A time=00:13:22.30 bitrate=N/A speed=20.5x    frame=19485 fps=491 q=-0.0 size=N/A time=00:13:32.68 bitrate=N/A speed=20.5x    frame=19743 fps=491 q=-0.0 size=N/A time=00:13:43.44 bitrate=N/A speed=20.5x    frame=19988 fps=491 q=-0.0 size=N/A time=00:13:53.66 bitrate=N/A speed=20.5x    frame=20241 fps=490 q=-0.0 size=N/A time=00:14:04.21 bitrate=N/A speed=20.5x    frame=20498 fps=491 q=-0.0 size=N/A time=00:14:14.93 bitrate=N/A speed=20.5x    frame=20775 fps=491 q=-0.0 size=N/A time=00:14:26.49 bitrate=N/A speed=20.5x    frame=21015 fps=491 q=-0.0 size=N/A time=00:14:36.50 bitrate=N/A speed=20.5x    frame=21267 fps=491 q=-0.0 size=N/A time=00:14:47.01 bitrate=N/A speed=20.5x    frame=21517 fps=490 q=-0.0 size=N/A time=00:14:57.43 bitrate=N/A speed=20.5x    frame=21776 fps=491 q=-0.0 size=N/A time=00:15:08.24 bitrate=N/A speed=20.5x    frame=22039 fps=491 q=-0.0 size=N/A time=00:15:19.20 bitrate=N/A speed=20.5x    frame=22300 fps=491 q=-0.0 size=N/A time=00:15:30.09 bitrate=N/A speed=20.5x    frame=22576 fps=491 q=-0.0 size=N/A time=00:15:41.60 bitrate=N/A speed=20.5x    frame=22838 fps=492 q=-0.0 size=N/A time=00:15:52.53 bitrate=N/A speed=20.5x    frame=23092 fps=492 q=-0.0 size=N/A time=00:16:03.12 bitrate=N/A speed=20.5x    frame=23341 fps=492 q=-0.0 size=N/A time=00:16:13.51 bitrate=N/A speed=20.5x    frame=23579 fps=491 q=-0.0 size=N/A time=00:16:23.44 bitrate=N/A speed=20.5x    frame=23820 fps=491 q=-0.0 size=N/A time=00:16:33.49 bitrate=N/A speed=20.5x    frame=24086 fps=491 q=-0.0 size=N/A time=00:16:44.58 bitrate=N/A speed=20.5x    frame=24361 fps=492 q=-0.0 size=N/A time=00:16:56.05 bitrate=N/A speed=20.5x    frame=24619 fps=492 q=-0.0 size=N/A time=00:17:06.81 bitrate=N/A speed=20.5x    frame=24870 fps=492 q=-0.0 size=N/A time=00:17:17.28 bitrate=N/A speed=20.5x    frame=25130 fps=492 q=-0.0 size=N/A time=00:17:28.13 bitrate=N/A speed=20.5x    frame=25384 fps=492 q=-0.0 size=N/A time=00:17:38.72 bitrate=N/A speed=20.5x    frame=25652 fps=492 q=-0.0 size=N/A time=00:17:49.90 bitrate=N/A speed=20.5x    frame=25895 fps=492 q=-0.0 size=N/A time=00:18:00.03 bitrate=N/A speed=20.5x    frame=26184 fps=492 q=-0.0 size=N/A time=00:18:12.09 bitrate=N/A speed=20.5x    frame=26444 fps=493 q=-0.0 size=N/A time=00:18:22.93 bitrate=N/A speed=20.5x    frame=26685 fps=492 q=-0.0 size=N/A time=00:18:32.98 bitrate=N/A speed=20.5x    frame=26924 fps=492 q=-0.0 size=N/A time=00:18:42.95 bitrate=N/A speed=20.5x    frame=27180 fps=492 q=-0.0 size=N/A time=00:18:53.63 bitrate=N/A speed=20.5x    frame=27437 fps=492 q=-0.0 size=N/A time=00:19:04.35 bitrate=N/A speed=20.5x    frame=27733 fps=493 q=-0.0 size=N/A time=00:19:16.69 bitrate=N/A speed=20.6x    frame=28001 fps=493 q=-0.0 size=N/A time=00:19:27.87 bitrate=N/A speed=20.6x    frame=28268 fps=493 q=-0.0 size=N/A time=00:19:39.01 bitrate=N/A speed=20.6x    frame=28533 fps=494 q=-0.0 size=N/A time=00:19:50.06 bitrate=N/A speed=20.6x    frame=28773 fps=493 q=-0.0 size=N/A time=00:20:00.07 bitrate=N/A speed=20.6x    frame=29040 fps=494 q=-0.0 size=N/A time=00:20:11.21 bitrate=N/A speed=20.6x    frame=29317 fps=494 q=-0.0 size=N/A time=00:20:22.76 bitrate=N/A speed=20.6x    frame=29565 fps=494 q=-0.0 size=N/A time=00:20:33.10 bitrate=N/A speed=20.6x    frame=29779 fps=493 q=-0.0 size=N/A time=00:20:42.03 bitrate=N/A speed=20.6x    frame=30037 fps=493 q=-0.0 size=N/A time=00:20:52.79 bitrate=N/A speed=20.6x    frame=30310 fps=494 q=-0.0 size=N/A time=00:21:04.17 bitrate=N/A speed=20.6x    frame=30599 fps=494 q=-0.0 size=N/A time=00:21:16.23 bitrate=N/A speed=20.6x    frame=30876 fps=495 q=-0.0 size=N/A time=00:21:27.78 bitrate=N/A speed=20.6x    frame=31158 fps=495 q=-0.0 size=N/A time=00:21:39.54 bitrate=N/A speed=20.6x    frame=31442 fps=495 q=-0.0 size=N/A time=00:21:51.39 bitrate=N/A speed=20.7x    frame=31690 fps=495 q=-0.0 size=N/A time=00:22:01.73 bitrate=N/A speed=20.7x    frame=31990 fps=496 q=-0.0 size=N/A time=00:22:14.24 bitrate=N/A speed=20.7x    frame=32274 fps=496 q=-0.0 size=N/A time=00:22:26.09 bitrate=N/A speed=20.7x    frame=32555 fps=497 q=-0.0 size=N/A time=00:22:37.81 bitrate=N/A speed=20.7x    frame=32836 fps=497 q=-0.0 size=N/A time=00:22:49.53 bitrate=N/A speed=20.7x    frame=33069 fps=497 q=-0.0 size=N/A time=00:22:59.25 bitrate=N/A speed=20.7x    frame=33358 fps=497 q=-0.0 size=N/A time=00:23:11.30 bitrate=N/A speed=20.7x    frame=33567 fps=497 q=-0.0 size=N/A time=00:23:20.02 bitrate=N/A speed=20.7x    frame=33733 fps=495 q=-0.0 size=N/A time=00:23:26.94 bitrate=N/A speed=20.7x    frame=33889 fps=494 q=-0.0 size=N/A time=00:23:33.45 bitrate=N/A speed=20.6x    frame=34090 fps=493 q=-0.0 size=N/A time=00:23:41.83 bitrate=N/A speed=20.6x    frame=34258 fps=492 q=-0.0 size=N/A time=00:23:48.84 bitrate=N/A speed=20.5x    frame=34408 fps=490 q=-0.0 size=N/A time=00:23:55.10 bitrate=N/A speed=20.4x    frame=34604 fps=490 q=-0.0 size=N/A time=00:24:03.27 bitrate=N/A speed=20.4x    frame=34781 fps=488 q=-0.0 size=N/A time=00:24:10.65 bitrate=N/A speed=20.4x    frame=34953 fps=487 q=-0.0 size=N/A time=00:24:17.83 bitrate=N/A speed=20.3x    frame=35102 fps=486 q=-0.0 size=N/A time=00:24:24.04 bitrate=N/A speed=20.3x    frame=35268 fps=485 q=-0.0 size=N/A time=00:24:30.96 bitrate=N/A speed=20.2x    frame=35447 fps=484 q=-0.0 size=N/A time=00:24:38.43 bitrate=N/A speed=20.2x    frame=35609 fps=483 q=-0.0 size=N/A time=00:24:45.19 bitrate=N/A speed=20.1x    [Parsed_psnr_10 @ 00000216a77495c0] PSNR y:48.720619 u:50.897688 v:50.455291 average:49.278708 min:39.883049 max:inf
[out#0/null @ 00000216a7e2e5c0] video:15315KiB audio:278820KiB subtitle:0KiB other streams:0KiB global headers:0KiB muxing overhead: unknown
frame=35642 fps=482 q=-0.0 Lsize=N/A time=00:24:46.56 bitrate=N/A speed=20.1x    
